<svg width="12" height="11" viewBox="0 0 12 11" fill="none" xmlns="http://www.w3.org/2000/svg">
<path d="M4.176 10.24C3.48 10.24 2.872 10.052 2.352 9.676C1.832 9.3 1.428 8.736 1.14 7.984C0.852 7.224 0.708 6.296 0.708 5.2C0.708 4.104 0.852 3.18 1.14 2.428C1.428 1.668 1.832 1.1 2.352 0.723999C2.872 0.347999 3.48 0.159999 4.176 0.159999C4.872 0.159999 5.48 0.347999 6 0.723999C6.52 1.1 6.924 1.668 7.212 2.428C7.5 3.18 7.644 4.104 7.644 5.2C7.644 6.296 7.5 7.224 7.212 7.984C6.924 8.736 6.52 9.3 6 9.676C5.48 10.052 4.872 10.24 4.176 10.24ZM4.176 9.964C4.776 9.964 5.248 9.672 5.592 9.088C5.936 8.504 6.108 7.592 6.108 6.352V4.036C6.108 2.804 5.936 1.896 5.592 1.312C5.248 0.727999 4.776 0.435999 4.176 0.435999C3.576 0.435999 3.104 0.727999 2.76 1.312C2.416 1.896 2.244 2.804 2.244 4.036V6.352C2.244 7.584 2.416 8.496 2.76 9.088C3.104 9.672 3.576 9.964 4.176 9.964ZM9.01547 10V9.76L9.85547 9.64V0.76L9.01547 0.64V0.4H11.0555V9.64L11.8955 9.76V10H9.01547Z" fill="#1B1A17" fill-opacity="0.82"/>
</svg>
